<svg xmlns="http://www.w3.org/2000/svg" xmlns:xlink="http://www.w3.org/1999/xlink" width="500" zoomAndPan="magnify" viewBox="0 0 375 374.999991" height="500" preserveAspectRatio="xMidYMid meet" version="1.2"><defs/><g id="66b944360a"><g style="fill:#000000;fill-opacity:1;"><g transform="translate(160.685809, 176.18971)"><path style="stroke:none" d="M 4.015625 -7.40625 L 2.53125 -3.171875 L 5.515625 -3.171875 Z M 0.234375 0 C 0.285156 -0.113281 0.335938 -0.234375 0.390625 -0.359375 C 0.441406 -0.492188 0.5 -0.640625 0.5625 -0.796875 C 0.632812 -0.960938 0.707031 -1.148438 0.78125 -1.359375 C 0.863281 -1.566406 0.957031 -1.804688 1.0625 -2.078125 L 3.40625 -8.5625 L 4.65625 -8.5625 L 7 -2.078125 C 7.101562 -1.804688 7.191406 -1.566406 7.265625 -1.359375 C 7.347656 -1.148438 7.421875 -0.960938 7.484375 -0.796875 C 7.546875 -0.640625 7.601562 -0.492188 7.65625 -0.359375 C 7.71875 -0.234375 7.773438 -0.113281 7.828125 0 L 6.625 0 L 5.828125 -2.25 L 2.21875 -2.25 L 1.4375 0 Z M 0.234375 0 "/></g></g><path style=" stroke:none;fill-rule:evenodd;fill:#f1cf1d;fill-opacity:1;" d="M 176.175781 174.84375 C 175.640625 174.578125 175.640625 174.84375 175.640625 175.109375 L 175.640625 273.21875 C 175.640625 273.484375 175.375 273.484375 175.109375 273.484375 C 168.199219 273.21875 161.816406 271.625 155.4375 268.964844 C 155.167969 268.964844 155.167969 268.699219 155.167969 268.433594 L 155.167969 161.285156 C 155.167969 161.019531 154.902344 160.753906 154.636719 160.488281 C 145.332031 154.371094 136.558594 148.523438 128.316406 142.9375 C 117.679688 135.761719 111.035156 126.988281 109.171875 114.222656 C 106.515625 95.878906 114.492188 80.191406 128.316406 69.027344 C 134.429688 64.238281 141.078125 60.25 147.992188 57.328125 C 165.539062 50.414062 184.683594 47.753906 203.558594 49.882812 C 233.871094 53.339844 260.191406 65.570312 282.523438 86.574219 C 311.769531 113.691406 326.925781 152.777344 325.066406 192.925781 C 324 212.066406 319.214844 230.414062 310.441406 247.695312 C 307.25 254.339844 302.996094 260.722656 297.945312 266.835938 C 297.148438 267.636719 297.148438 267.636719 297.945312 266.570312 C 312.304688 246.097656 320.8125 222.96875 322.40625 198.242188 C 327.722656 118.210938 262.316406 50.945312 181.226562 58.65625 C 172.453125 59.453125 164.210938 61.316406 155.96875 64.503906 C 149.054688 67.164062 143.472656 70.355469 139.21875 73.8125 C 129.910156 81.523438 124.0625 92.953125 124.59375 104.917969 C 125.125 115.554688 131.507812 124.59375 140.28125 130.707031 C 144.800781 133.898438 168.199219 149.320312 210.207031 177.503906 C 229.082031 190 245.035156 207.8125 246.898438 231.476562 C 247.960938 243.707031 245.035156 254.605469 238.390625 264.179688 C 233.070312 271.890625 224.828125 279.332031 216.585938 284.121094 C 206.21875 289.96875 194.785156 293.160156 182.554688 293.691406 C 172.1875 294.222656 162.613281 293.160156 153.308594 291.03125 C 145.863281 289.171875 138.417969 285.714844 130.710938 280.929688 C 119.277344 274.015625 111.035156 264.179688 106.25 251.683594 C 98.539062 232.007812 103.589844 209.410156 119.277344 195.582031 C 126.457031 189.203125 134.699219 185.480469 144.269531 183.617188 C 144.800781 183.617188 144.800781 183.617188 144.535156 184.148438 C 142.40625 185.746094 140.8125 187.074219 140.015625 187.871094 C 136.292969 191.328125 132.835938 195.582031 129.644531 200.898438 C 121.933594 214.195312 119.277344 231.476562 122.734375 246.632812 C 125.921875 261.253906 134.699219 271.890625 149.054688 279.066406 C 161.550781 285.183594 174.84375 287.042969 189.203125 284.386719 C 202.230469 281.992188 214.195312 274.28125 220.574219 262.316406 C 222.703125 258.328125 224.03125 253.542969 224.828125 247.960938 C 226.425781 238.65625 225.628906 229.347656 222.703125 220.042969 C 218.980469 208.34375 209.675781 198.242188 199.570312 190.796875 C 195.582031 187.871094 187.871094 182.554688 176.175781 174.84375 Z M 227.222656 160.753906 C 227.222656 160.753906 227.488281 161.019531 227.488281 161.019531 C 234.402344 164.742188 241.046875 168.199219 246.898438 172.1875 C 268.167969 186.277344 289.171875 210.472656 289.4375 237.324219 C 289.4375 243.707031 289.171875 248.757812 288.375 252.480469 C 283.855469 274.015625 272.15625 290.765625 253.542969 302.730469 C 247.429688 306.71875 240.78125 310.441406 234.136719 313.101562 C 199.835938 327.191406 161.019531 324.53125 127.785156 308.046875 C 91.625 289.96875 64.773438 256.46875 55.730469 217.117188 C 47.222656 180.695312 53.871094 142.40625 74.078125 111.035156 C 77.003906 106.78125 79.925781 102.792969 83.382812 98.804688 C 87.105469 94.550781 91.625 90.296875 96.410156 86.308594 C 96.675781 86.042969 96.675781 86.042969 96.410156 86.308594 C 74.875 107.046875 60.519531 134.164062 56.796875 163.945312 C 50.414062 215.789062 74.875 268.433594 120.871094 294.222656 C 139.75 304.859375 161.550781 309.644531 183.882812 309.644531 C 199.835938 309.378906 214.992188 305.921875 228.816406 299.007812 C 235.199219 296.085938 241.046875 291.832031 246.632812 286.511719 C 267.105469 267.105469 273.21875 238.390625 261.253906 212.597656 C 259.925781 209.941406 258.597656 207.015625 256.734375 203.824219 C 246.101562 184.683594 228.285156 171.652344 209.144531 161.019531 C 208.078125 160.488281 208.34375 160.222656 209.410156 159.957031 C 217.386719 158.09375 224.5625 154.371094 230.679688 149.320312 C 233.605469 146.660156 235.996094 142.9375 238.125 138.152344 C 240.25 133.367188 241.3125 127.785156 241.046875 121.402344 C 240.515625 95.613281 214.460938 90.5625 194.253906 89.230469 C 188.40625 88.964844 182.023438 88.964844 175.640625 88.964844 C 175.375 88.964844 175.375 88.964844 175.375 89.230469 L 175.375 138.949219 C 175.375 139.484375 175.109375 139.484375 174.84375 139.21875 L 155.703125 126.453125 C 155.4375 126.453125 155.167969 125.921875 155.167969 125.65625 C 155.167969 115.023438 155.167969 105.980469 155.167969 98.804688 C 155.167969 96.144531 154.636719 93.21875 153.839844 90.296875 C 153.308594 87.636719 151.714844 85.777344 149.585938 84.179688 C 149.320312 83.914062 149.320312 83.914062 149.851562 83.914062 C 171.386719 83.914062 187.605469 83.914062 198.773438 83.914062 C 207.28125 83.914062 212.332031 83.914062 213.929688 84.179688 C 226.957031 84.976562 239.984375 87.902344 250.085938 95.878906 C 257.796875 101.460938 263.914062 110.503906 264.445312 119.808594 C 264.976562 130.707031 261.253906 139.484375 253.011719 146.128906 C 245.566406 152.246094 237.324219 157.03125 227.753906 160.222656 C 227.488281 160.222656 227.488281 160.488281 227.222656 160.753906 Z M 227.222656 160.753906 "/></g></svg>